<svg width="40" height="41" fill="none" xmlns="http://www.w3.org/2000/svg"><g clip-path="url(#clip0)" fill-rule="evenodd" clip-rule="evenodd"><path d="M26.921 18.87S13.708 3.274 12.674 2.115C11.64.956 9.08 1 9.08 1l7.37 16.49v1.158l10.472.223zM26.921 23.55S13.708 39.148 12.674 40.307C11.64 41.465 9.08 41.42 9.08 41.42l7.37-16.49v-1.158l10.472-.223zM7.596 19.584l-5.573-6.06H.18l2.786 6.951 4.63-.891zM7.596 22.614l-5.573 6.061H.18l2.786-6.952 4.63.891z" fill="#1111B7"/><path d="M2.202 23.64l.54-1.427 4.314.98-.719.758-4.135-.312z" fill="#0C0C96"/><path d="M0 21.277c0-1.56 10.652-2.807 11.82-2.807H32.9c1.168 0 6.741 1.248 6.741 2.807 0 1.56-5.528 2.808-6.741 2.808H11.865C10.652 24.085 0 22.793 0 21.277z" fill="#4141E5"/><path d="M0 21.277c0-1.56 10.652-2.807 11.82-2.807H32.9c1.168 0 6.741 1.248 6.741 2.807-6.966-1.56-32.494-1.337-39.64 0z" fill="#8484F4"/><path d="M17.573 13.523v-.446c0-.534.45-.846 1.213-1.025l1.573-.267h2.382c.54 0 .99.446.99.98v1.025c0 .535-.45.98-.99.98H20.45l-1.573-.311c-.584-.178-1.303-.401-1.303-.936zM13.933 8.042v-.357c0-.446.36-.713.988-.847l1.259-.223h1.887c.45 0 .764.357.764.758v.847c0 .445-.36.757-.764.757h-1.842l-1.259-.267c-.494 0-1.033-.223-1.033-.668zM17.573 29.076v.446c0 .535.45.847 1.213 1.025l1.573.267h2.382c.54 0 .99-.445.99-.98v-1.025c0-.535-.45-.98-.99-.98H20.45l-1.573.311c-.584.134-1.303.401-1.303.936zM13.933 34.513v.357c0 .446.36.713.988.847l1.259.222h1.887c.45 0 .764-.356.764-.757v-.847a.754.754 0 0 0-.764-.758h-1.842l-1.259.268c-.494.044-1.033.267-1.033.668z" fill="#0A0A7A"/><path d="M16.494 24.887v-.802h9.978l-.72.802h-9.258z" fill="#0C0C96"/></g><defs><clipPath id="clip0"><path fill="#fff" d="M0 0h40v41H0z"/></clipPath></defs></svg>